# xmcd CD database file
#
# Track frame offsets:
#	182
#	85375
#	96312
#	173772
#
# Disc length: 3512 seconds
#
# Revision: 0
# Processed by: cddbd v1.5.2PL0 Copyright (c) Steve Scherf et al.
# Submitted via: CDex 1.51
#
DISCID=2a0db604
DTITLE=Walt Dickerson - Shades Of Love
DYEAR=1977
DGENRE=Jazz
TTITLE0=Infinite Love
TTITLE1=Love Is You
TTITLE2=Interim Love
TTITLE3=Infinite Love (Take 2)
EXTD=YEAR: 1977
EXTT0=
EXTT1=
EXTT2=
EXTT3=
PLAYORDER=
